*
G04 Mass Parameters ***
*
G04 Image ***
*
%INC:\DOCUMENTS AND SETTINGS\ANNA\DESKTOP\H34MOTE\H34MOTE\COPY OF H34MOTE-11.SST*%
%ICAS*%
%MOIN*%
%IPPOS*%
%ASAXBY*%
G74*%FSLAN2X34Y34*%
*
G04 Aperture Definitions ***
*
%AMTHERMAL39*
1,1,0.0139,0,0,*
1,0,0.0120,0,0,*
21,0,0.0140,0.1000,0,0,45.0*
21,0,0.0140,0.1000,0,0,135.0*%
%AMTHERMAL46*
1,1,0.1159,0,0,*
1,0,0.0920,0,0,*
21,0,0.1160,0.0100,0,0,45.0*
21,0,0.1160,0.0100,0,0,135.0*%
%AMTHERMAL47*
1,1,0.0139,0,0,*
1,0,0.0120,0,0,*
21,0,0.0140,0.1000,0,0,216.2*
21,0,0.0140,0.1000,0,0,306.2*%
%ADD10R,0.0320X0.0380*%
%ADD11C,0.0472*%
%ADD12R,0.0354X0.1141*%
%ADD13R,0.0157X0.0708*%
%ADD14C,0.0620*%
%ADD15R,0.0620X0.0620*%
%ADD16C,0.0400*%
%ADD17C,0.1750*%
%ADD18R,0.0106X0.0315*%
%ADD19R,0.0106X0.0374*%
%ADD20R,0.0315X0.0106*%
%ADD21R,0.0374X0.0106*%
%ADD22R,0.0492X0.0106*%
%ADD23C,0.0280*%
%ADD24C,0.0100*%
%ADD25C,0.0080*%
%ADD26C,0.0120*%
%ADD27C,0.0280*%
%ADD28R,0.0320X0.0380*%
%ADD29C,0.0472*%
%ADD30C,0.0620*%
%ADD31R,0.0620X0.0620*%
%ADD32C,0.1750*%
%ADD33R,0.0354X0.1141*%
%ADD34R,0.0157X0.0708*%
%ADD35C,0.0280*%
%ADD36C,0.0820*%
%ADD37R,0.0820X0.0820*%
%ADD38C,0.0866*%
%ADD39THERMAL39*%
%ADD40C,0.0450*%
%ADD41C,0.0300*%
%ADD42C,0.0450*%
%ADD43C,0.0472*%
%ADD44C,0.0820*%
%ADD45R,0.0820X0.0820*%
%ADD46THERMAL46*%
%ADD47THERMAL47*%
%ADD48C,0.0472*%
%ADD49C,0.0010*%
%ADD50R,0.0320X0.0380*%
%ADD51C,0.0472*%
%ADD52R,0.0354X0.1142*%
%ADD53R,0.0157X0.0708*%
%ADD54C,0.0620*%
%ADD55R,0.0620X0.0620*%
%ADD56C,0.0420*%
%ADD57C,0.1750*%
%ADD58R,0.0106X0.0315*%
%ADD59R,0.0106X0.0374*%
%ADD60R,0.0315X0.0106*%
%ADD61R,0.0374X0.0106*%
%ADD62R,0.0492X0.0106*%
%ADD63R,0.0354X0.1142*%
%ADD64R,0.0106X0.0315*%
%ADD65R,0.0106X0.0374*%
%ADD66R,0.0315X0.0106*%
%ADD67R,0.0374X0.0106*%
%ADD68R,0.0492X0.0106*%
%ADD69C,0.0060*%
%ADD70C,0.0070*%
*
G04 Plot Data ***
*
G54D25*
G01X0008000Y0009500D02*
X0008550D01*
Y0008500D01*
X0005450D01*
Y0009500D01*
X0006000D01*
Y0012500D01*
Y0009500D02*
X0007000D01*
X0008000D01*
Y0012500D01*
X0018000Y0009500D02*
X0018550D01*
Y0008500D01*
X0015450D01*
Y0009500D01*
X0016000D01*
Y0012500D01*
Y0009500D02*
X0017000D01*
X0018000D01*
Y0012500D01*
X0013000Y0009500D02*
X0013550D01*
Y0008500D01*
X0010450D01*
Y0009500D01*
X0011000D01*
Y0012500D01*
Y0009500D02*
X0012000D01*
X0013000D01*
Y0012500D01*
G54D69*
G01X0010495Y0006225D02*
X0009345D01*
Y0005580D01*
X0010495D01*
Y0006225D01*
X0012615Y0004835D02*
X0013765D01*
Y0005480D01*
X0012615D01*
Y0004835D01*
X0012475Y0007335D02*
X0011325D01*
Y0006690D01*
X0012475D01*
Y0007335D01*
X0012845Y0005635D02*
X0013995D01*
Y0006280D01*
X0012845D01*
Y0005635D01*
X0012615Y0006405D02*
X0013765D01*
Y0007050D01*
X0012615D01*
Y0006405D01*
X0009455D02*
X0010605D01*
Y0007050D01*
X0009455D01*
Y0006405D01*
X0012025Y0004605D02*
X0010875D01*
Y0003960D01*
X0012025D01*
Y0004605D01*
X0010615Y0005445D02*
X0009465D01*
Y0004800D01*
X0010615D01*
Y0005445D01*
G54D70*
G01X0021917Y0006478D02*
X0021983D01*
Y0006412D01*
X0021967Y0006378D01*
X0021867D01*
X0021850Y0006412D01*
Y0006545D01*
X0021867Y0006578D01*
X0021967D01*
X0021983Y0006545D01*
X0021577Y0006378D02*
X0021560Y0006412D01*
Y0006545D01*
X0021577Y0006578D01*
X0021677D01*
X0021693Y0006545D01*
Y0006412D01*
X0021677Y0006378D01*
X0021577D01*
X0021353Y0006478D02*
X0021403Y0006378D01*
X0021270Y0006478D02*
X0021370D01*
X0021403Y0006512D01*
Y0006545D01*
X0021370Y0006578D01*
X0021270D01*
Y0006378D01*
X0021080Y0006478D02*
X0020980D01*
X0021113Y0006378D02*
X0020980D01*
Y0006578D01*
X0021113D01*
X0020823Y0006378D02*
X0020723D01*
X0020823Y0006578D01*
X0020723D01*
X0013105Y0007167D02*
X0012972D01*
X0013105Y0007300D01*
Y0007334D01*
X0013089Y0007367D01*
X0012989D01*
X0012972Y0007334D01*
X0012815Y0007200D02*
X0012799Y0007167D01*
X0012699D01*
X0012682Y0007200D01*
Y0007334D01*
X0012699Y0007367D01*
X0012799D01*
X0012815Y0007334D01*
X0010789Y0008087D02*
X0010889Y0008287D01*
X0010755D01*
X0010482Y0008154D02*
Y0008120D01*
X0010499Y0008087D01*
X0010565D01*
X0010582Y0008120D01*
Y0008287D01*
X0010599D02*
X0010532D01*
X0010288Y0008787D02*
X0010221D01*
X0010254D02*
Y0008987D01*
X0010221Y0008954D01*
X0013728Y0008820D02*
X0013761Y0008787D01*
X0013828D01*
X0013861Y0008820D01*
Y0008854D01*
X0013794Y0008920D01*
X0013861Y0008987D01*
X0013728D01*
X0009899Y0007297D02*
X0009799D01*
X0009782Y0007330D01*
Y0007364D01*
X0009799Y0007397D01*
X0009899D01*
X0009915Y0007364D01*
Y0007330D01*
X0009849Y0007197D01*
X0009625Y0007230D02*
X0009609Y0007197D01*
X0009509D01*
X0009492Y0007230D01*
Y0007364D01*
X0009509Y0007397D01*
X0009609D01*
X0009625Y0007364D01*
X0011308Y0003769D02*
X0011408D01*
X0011424Y0003736D01*
Y0003703D01*
X0011408Y0003669D01*
X0011308D01*
X0011291Y0003703D01*
Y0003736D01*
X0011358Y0003869D01*
X0011134Y0003703D02*
X0011118Y0003669D01*
X0011018D01*
X0011001Y0003703D01*
Y0003836D01*
X0011018Y0003869D01*
X0011118D01*
X0011134Y0003836D01*
X0009844Y0004489D02*
X0009778D01*
X0009811D02*
Y0004689D01*
X0009778Y0004656D01*
X0009588Y0004489D02*
X0009471D01*
Y0004689D01*
X0005872Y0008187D02*
X0005889Y0008220D01*
Y0008254D01*
X0005872Y0008287D01*
X0005772D01*
X0005755Y0008254D01*
Y0008220D01*
X0005772Y0008187D01*
X0005872D01*
X0005889Y0008154D01*
Y0008120D01*
X0005872Y0008087D01*
X0005772D01*
X0005755Y0008120D01*
Y0008154D01*
X0005772Y0008187D01*
X0005482Y0008154D02*
Y0008120D01*
X0005499Y0008087D01*
X0005565D01*
X0005582Y0008120D01*
Y0008287D01*
X0005599D02*
X0005532D01*
X0005238Y0008837D02*
X0005171D01*
X0005204D02*
Y0009037D01*
X0005171Y0009004D01*
X0008708Y0008840D02*
X0008741Y0008807D01*
X0008808D01*
X0008841Y0008840D01*
Y0008874D01*
X0008774Y0008940D01*
X0008841Y0009007D01*
X0008708D01*
X0009154Y0005979D02*
X0009254Y0006179D01*
X0009121D01*
X0008964Y0006013D02*
X0008948Y0005979D01*
X0008848D01*
X0008831Y0006013D01*
Y0006146D01*
X0008848Y0006179D01*
X0008948D01*
X0008964Y0006146D01*
X0012982Y0004510D02*
X0012999Y0004477D01*
X0013099D01*
X0013115Y0004510D01*
Y0004577D01*
X0013082Y0004610D01*
X0012982D01*
Y0004677D01*
X0013115D01*
X0012825Y0004510D02*
X0012809Y0004477D01*
X0012709D01*
X0012692Y0004510D01*
Y0004644D01*
X0012709Y0004677D01*
X0012809D01*
X0012825Y0004644D01*
X0015842Y0008247D02*
X0015942D01*
X0015959Y0008214D01*
Y0008180D01*
X0015942Y0008147D01*
X0015842D01*
X0015825Y0008180D01*
Y0008214D01*
X0015892Y0008347D01*
X0015552Y0008214D02*
Y0008180D01*
X0015569Y0008147D01*
X0015635D01*
X0015652Y0008180D01*
Y0008347D01*
X0015669D02*
X0015602D01*
X0015318Y0008787D02*
X0015251D01*
X0015284D02*
Y0008987D01*
X0015251Y0008954D01*
X0018708Y0008820D02*
X0018741Y0008787D01*
X0018808D01*
X0018841Y0008820D01*
Y0008854D01*
X0018774Y0008920D01*
X0018841Y0008987D01*
X0018708D01*
X0011804Y0007546D02*
X0011671D01*
X0011738Y0007679D01*
X0011771D01*
Y0007479D01*
X0011514Y0007513D02*
X0011498Y0007479D01*
X0011398D01*
X0011381Y0007513D01*
Y0007646D01*
X0011398Y0007679D01*
X0011498D01*
X0011514Y0007646D01*
X0021927Y0004102D02*
X0021827D01*
X0021943Y0003968D02*
X0021877D01*
X0021860Y0004002D01*
Y0004168D01*
X0021653Y0004102D02*
Y0003968D01*
X0021670D02*
X0021553D01*
X0021537Y0004002D01*
Y0004102D01*
X0021263Y0003968D02*
X0021247Y0004002D01*
Y0004068D01*
X0021263Y0004102D01*
X0021363D01*
X0021380Y0004068D01*
Y0004002D01*
X0021363Y0003968D01*
X0021263D01*
X0021023D02*
Y0004168D01*
X0021090D02*
X0020957D01*
X0018537Y0011143D02*
X0018503Y0011110D01*
X0018470Y0011093D01*
X0018403D01*
X0018370Y0011110D01*
X0018337Y0011143D01*
Y0011177D01*
X0018370Y0011210D01*
X0018403Y0011227D01*
X0018470D01*
X0018503Y0011210D01*
X0018537Y0011177D01*
Y0011143D01*
X0018503Y0010937D02*
X0018537Y0010920D01*
Y0010820D01*
X0018503Y0010803D01*
X0018370D01*
X0018337Y0010820D01*
Y0010920D01*
X0018370Y0010937D01*
X0018537Y0010530D02*
X0018337D01*
X0018537Y0010513D02*
Y0010613D01*
X0018470Y0010647D01*
X0018403D01*
X0018337Y0010613D01*
Y0010513D01*
X0018470Y0010357D02*
Y0010223D01*
X0018537Y0010357D02*
X0018437D01*
X0018337Y0010307D01*
Y0010273D01*
X0018437Y0010223D01*
X0018537D01*
X0015717Y0011193D02*
Y0011127D01*
Y0011160D02*
X0015517D01*
X0015550Y0011127D01*
X0015683Y0010937D02*
X0015717Y0010920D01*
Y0010820D01*
X0015683Y0010803D01*
X0015550D01*
X0015517Y0010820D01*
Y0010920D01*
X0015550Y0010937D01*
X0015717Y0010530D02*
X0015517D01*
X0015717Y0010513D02*
Y0010613D01*
X0015650Y0010647D01*
X0015583D01*
X0015517Y0010613D01*
Y0010513D01*
X0015650Y0010357D02*
Y0010223D01*
X0015717Y0010357D02*
X0015617D01*
X0015517Y0010307D01*
Y0010273D01*
X0015617Y0010223D01*
X0015717D01*
X0008527Y0010743D02*
X0008493Y0010710D01*
X0008460Y0010693D01*
X0008393D01*
X0008360Y0010710D01*
X0008327Y0010743D01*
Y0010777D01*
X0008360Y0010810D01*
X0008393Y0010827D01*
X0008460D01*
X0008493Y0010810D01*
X0008527Y0010777D01*
Y0010743D01*
X0008327Y0010537D02*
X0008493D01*
X0008527Y0010520D01*
X0008427Y0010470D01*
X0008393D02*
X0008427D01*
X0008527Y0010420D01*
X0008493Y0010403D01*
X0008327D01*
X0008427Y0010113D02*
Y0010213D01*
X0008393Y0010247D01*
X0008360D01*
X0008327Y0010213D01*
Y0010113D01*
X0008527D01*
X0005653Y0010817D02*
X0005687Y0010800D01*
Y0010700D01*
X0005653Y0010683D01*
X0005520D01*
X0005487Y0010700D01*
Y0010800D01*
X0005520Y0010817D01*
X0005653Y0010527D02*
X0005687Y0010510D01*
Y0010410D01*
X0005653Y0010393D01*
X0005520D01*
X0005487Y0010410D01*
Y0010510D01*
X0005520Y0010527D01*
X0005487Y0010237D02*
X0005553D01*
X0005687Y0010170D01*
X0005553Y0010103D01*
X0005487D01*
X0013497Y0011163D02*
Y0011097D01*
Y0011130D02*
X0013297D01*
X0013330Y0011097D01*
X0013463Y0010907D02*
X0013497Y0010890D01*
Y0010790D01*
X0013463Y0010773D01*
X0013330D01*
X0013297Y0010790D01*
Y0010890D01*
X0013330Y0010907D01*
X0013497Y0010500D02*
X0013297D01*
X0013497Y0010483D02*
Y0010583D01*
X0013430Y0010617D01*
X0013363D01*
X0013297Y0010583D01*
Y0010483D01*
X0013430Y0010327D02*
Y0010193D01*
X0013497Y0010327D02*
X0013397D01*
X0013297Y0010277D01*
Y0010243D01*
X0013397Y0010193D01*
X0013497D01*
X0014442Y0006070D02*
X0014475Y0006037D01*
X0014542D01*
X0014575Y0006070D01*
Y0006104D01*
X0014509Y0006170D01*
X0014575Y0006237D01*
X0014442D01*
X0014285Y0006070D02*
X0014269Y0006037D01*
X0014169D01*
X0014152Y0006070D01*
Y0006204D01*
X0014169Y0006237D01*
X0014269D01*
X0014285Y0006204D01*
X0010660Y0011157D02*
Y0011023D01*
X0010527Y0011090D01*
Y0011123D01*
X0010727D01*
X0010693Y0010867D02*
X0010727Y0010850D01*
Y0010750D01*
X0010693Y0010733D01*
X0010560D01*
X0010527Y0010750D01*
Y0010850D01*
X0010560Y0010867D01*
X0010727Y0010460D02*
X0010527D01*
X0010727Y0010443D02*
Y0010543D01*
X0010660Y0010577D01*
X0010593D01*
X0010527Y0010543D01*
Y0010443D01*
X0010660Y0010287D02*
Y0010153D01*
X0010727Y0010287D02*
X0010627D01*
X0010527Y0010237D01*
Y0010203D01*
X0010627Y0010153D01*
X0010727D01*
X0006270Y0000366D02*
X0006136D01*
X0006203Y0000499D01*
X0006236D01*
Y0000299D01*
X0005863Y0000366D02*
Y0000332D01*
X0005880Y0000299D01*
X0005946D01*
X0005963Y0000332D01*
Y0000499D01*
X0005980D02*
X0005913D01*
X0011224Y0006711D02*
X0011157D01*
X0011190D02*
Y0006911D01*
X0011157Y0006877D01*
X0010967Y0006911D02*
Y0006744D01*
X0010950Y0006711D01*
X0010850D01*
X0010834Y0006744D01*
Y0006911D01*
X0012741Y0005647D02*
Y0005581D01*
Y0005614D02*
X0012541D01*
X0012574Y0005581D01*
M02*
