*
G04 Mass Parameters ***
*
G04 Image ***
*
%INC:\DOCUMENTS AND SETTINGS\ANNA\DESKTOP\H34MOTE\H34MOTE\COPY OF H34MOTE-11.PWR*%
%ICAS*%
%MOIN*%
%IPPOS*%
%ASAXBY*%
G74*%FSLAN2X34Y34*%
*
G04 Aperture Definitions ***
*
%AMTHERMAL39*
1,1,0.0139,0,0,*
1,0,0.0120,0,0,*
21,0,0.0140,0.1000,0,0,45.0*
21,0,0.0140,0.1000,0,0,135.0*%
%AMTHERMAL46*
1,1,0.1159,0,0,*
1,0,0.0920,0,0,*
21,0,0.1160,0.0100,0,0,45.0*
21,0,0.1160,0.0100,0,0,135.0*%
%AMTHERMAL47*
1,1,0.0139,0,0,*
1,0,0.0120,0,0,*
21,0,0.0140,0.1000,0,0,216.2*
21,0,0.0140,0.1000,0,0,306.2*%
%ADD10R,0.0320X0.0380*%
%ADD11C,0.0472*%
%ADD12R,0.0354X0.1141*%
%ADD13R,0.0157X0.0708*%
%ADD14C,0.0620*%
%ADD15R,0.0620X0.0620*%
%ADD16C,0.0400*%
%ADD17C,0.1750*%
%ADD18R,0.0106X0.0315*%
%ADD19R,0.0106X0.0374*%
%ADD20R,0.0315X0.0106*%
%ADD21R,0.0374X0.0106*%
%ADD22R,0.0492X0.0106*%
%ADD23C,0.0280*%
%ADD24C,0.0100*%
%ADD25C,0.0080*%
%ADD26C,0.0120*%
%ADD27C,0.0280*%
%ADD28R,0.0320X0.0380*%
%ADD29C,0.0472*%
%ADD30C,0.0620*%
%ADD31R,0.0620X0.0620*%
%ADD32C,0.1750*%
%ADD33R,0.0354X0.1141*%
%ADD34R,0.0157X0.0708*%
%ADD35C,0.0280*%
%ADD36C,0.0820*%
%ADD37R,0.0820X0.0820*%
%ADD38C,0.0866*%
%ADD39THERMAL39*%
%ADD40C,0.0450*%
%ADD41C,0.0300*%
%ADD42C,0.0450*%
%ADD43C,0.0472*%
%ADD44C,0.0820*%
%ADD45R,0.0820X0.0820*%
%ADD46THERMAL46*%
%ADD47THERMAL47*%
%ADD48C,0.0472*%
%ADD49C,0.0010*%
%ADD50R,0.0320X0.0380*%
%ADD51C,0.0472*%
%ADD52R,0.0354X0.1142*%
%ADD53R,0.0157X0.0708*%
%ADD54C,0.0620*%
%ADD55R,0.0620X0.0620*%
%ADD56C,0.0420*%
%ADD57C,0.1750*%
%ADD58R,0.0106X0.0315*%
%ADD59R,0.0106X0.0374*%
%ADD60R,0.0315X0.0106*%
%ADD61R,0.0374X0.0106*%
%ADD62R,0.0492X0.0106*%
%ADD63R,0.0354X0.1142*%
%ADD64R,0.0106X0.0315*%
%ADD65R,0.0106X0.0374*%
%ADD66R,0.0315X0.0106*%
%ADD67R,0.0374X0.0106*%
%ADD68R,0.0492X0.0106*%
%ADD69C,0.0060*%
%ADD70C,0.0070*%
*
G04 Plot Data ***
*
G54D39*
X0015890Y0003330D03*
X0016620Y0003270D03*
X0010730Y0005250D03*
X0016250Y0001770D03*
X0009740Y0004760D03*
X0010640Y0006030D03*
X0009740Y0007110D03*
G54D46*
X0006000Y0009000D03*
G54D47*
X0012010Y0004300D03*
G54D24*
G01X0009070Y0007520D02*
Y0004270D01*
X0010350D02*
X0009070D01*
X0010350Y0005610D02*
Y0004270D01*
X0011120Y0005610D02*
X0010350D01*
X0011120Y0007520D02*
Y0005610D01*
Y0007520D02*
X0009070D01*
G54D41*
G01X0022559Y0000000D02*
X-0000083D01*
Y0012488D01*
X0022559D01*
Y0000000D01*
G54D17*
X0001228Y0010941D03*
X0021248Y0000901D03*
G54D38*
X0017421Y0001594D03*
X0006397D03*
G54D40*
X0015860Y0002030D03*
X0015050Y0006830D03*
X0015460Y0007090D03*
X0016410D03*
X0010590Y0006800D03*
X0015960Y0006980D03*
X0014740Y0006430D03*
X0015330Y0003380D03*
X0017180Y0003290D03*
X0007020Y0001480D03*
X0007370Y0001160D03*
X0007790Y0001370D03*
X0008160Y0001070D03*
X0008530Y0001350D03*
X0008940Y0001120D03*
X0009350Y0001360D03*
X0009740Y0001060D03*
X0010520D03*
X0011720Y0001310D03*
X0015280Y0001080D03*
X0007980Y0002100D03*
X0007180Y0002110D03*
X0007590Y0001810D03*
X0016460Y0001340D03*
X0016870Y0001110D03*
X0014110Y0006290D03*
X0011460Y0005960D03*
X0010790Y0004760D03*
Y0004300D03*
X0011540Y0004760D03*
X0009760Y0006200D03*
X0012310Y0001750D03*
X0013180Y0005650D03*
X0015450Y0001730D03*
X0014680Y0001760D03*
X0014260Y0001990D03*
X0013870Y0001740D03*
X0013480Y0001990D03*
X0013090Y0001750D03*
X0012700Y0002000D03*
X0011130Y0002040D03*
X0010730Y0001760D03*
X0010340Y0002050D03*
X0009550D03*
X0009940Y0001760D03*
X0009150Y0001790D03*
X0008760Y0002080D03*
X0008370Y0001810D03*
X0010900Y0001330D03*
X0011320Y0001080D03*
X0012110Y0001060D03*
X0012500Y0001320D03*
X0012880Y0001050D03*
X0013300Y0001330D03*
X0013680Y0001070D03*
X0014080Y0001320D03*
X0014480Y0001070D03*
X0014890Y0001330D03*
X0015680D03*
X0016070Y0001080D03*
X0011920Y0002000D03*
X0011520Y0001740D03*
X0016630Y0002040D03*
X0011740Y0005690D03*
X0012250Y0004760D03*
X0012690Y0005700D03*
X0013720Y0005160D03*
X0013840Y0005690D03*
X0013800Y0006720D03*
X0010840Y0006410D03*
X0011330Y0007270D03*
G54D42*
X0015060Y0002050D03*
X0010150Y0001330D03*
G54D43*
X0006397Y0001594D03*
X0017420D03*
G54D44*
X0007000Y0009000D03*
X0008000D03*
X0012000D03*
X0013000D03*
X0017000D03*
X0018000D03*
G54D45*
X0011000D03*
X0016000D03*
M02*
