*
G04 Mass Parameters ***
*
G04 Image ***
*
%INC:\DOCUMENTS AND SETTINGS\ANNA\DESKTOP\H34MOTE\H34MOTE\COPY OF H34MOTE-11.SMB*%
%ICAS*%
%MOIN*%
%IPPOS*%
%ASAXBY*%
G74*%FSLAN2X34Y34*%
*
G04 Aperture Definitions ***
*
%AMTHERMAL39*
1,1,0.0139,0,0,*
1,0,0.0120,0,0,*
21,0,0.0140,0.1000,0,0,45.0*
21,0,0.0140,0.1000,0,0,135.0*%
%AMTHERMAL46*
1,1,0.1159,0,0,*
1,0,0.0920,0,0,*
21,0,0.1160,0.0100,0,0,45.0*
21,0,0.1160,0.0100,0,0,135.0*%
%AMTHERMAL47*
1,1,0.0139,0,0,*
1,0,0.0120,0,0,*
21,0,0.0140,0.1000,0,0,216.2*
21,0,0.0140,0.1000,0,0,306.2*%
%ADD10R,0.0320X0.0380*%
%ADD11C,0.0472*%
%ADD12R,0.0354X0.1141*%
%ADD13R,0.0157X0.0708*%
%ADD14C,0.0620*%
%ADD15R,0.0620X0.0620*%
%ADD16C,0.0400*%
%ADD17C,0.1750*%
%ADD18R,0.0106X0.0315*%
%ADD19R,0.0106X0.0374*%
%ADD20R,0.0315X0.0106*%
%ADD21R,0.0374X0.0106*%
%ADD22R,0.0492X0.0106*%
%ADD23C,0.0280*%
%ADD24C,0.0100*%
%ADD25C,0.0080*%
%ADD26C,0.0120*%
%ADD27C,0.0280*%
%ADD28R,0.0320X0.0380*%
%ADD29C,0.0472*%
%ADD30C,0.0620*%
%ADD31R,0.0620X0.0620*%
%ADD32C,0.1750*%
%ADD33R,0.0354X0.1141*%
%ADD34R,0.0157X0.0708*%
%ADD35C,0.0280*%
%ADD36C,0.0820*%
%ADD37R,0.0820X0.0820*%
%ADD38C,0.0866*%
%ADD39THERMAL39*%
%ADD40C,0.0450*%
%ADD41C,0.0300*%
%ADD42C,0.0450*%
%ADD43C,0.0472*%
%ADD44C,0.0820*%
%ADD45R,0.0820X0.0820*%
%ADD46THERMAL46*%
%ADD47THERMAL47*%
%ADD48C,0.0472*%
%ADD49C,0.0010*%
%ADD50R,0.0320X0.0380*%
%ADD51C,0.0472*%
%ADD52R,0.0354X0.1142*%
%ADD53R,0.0157X0.0708*%
%ADD54C,0.0620*%
%ADD55R,0.0620X0.0620*%
%ADD56C,0.0420*%
%ADD57C,0.1750*%
%ADD58R,0.0106X0.0315*%
%ADD59R,0.0106X0.0374*%
%ADD60R,0.0315X0.0106*%
%ADD61R,0.0374X0.0106*%
%ADD62R,0.0492X0.0106*%
%ADD63R,0.0354X0.1142*%
%ADD64R,0.0106X0.0315*%
%ADD65R,0.0106X0.0374*%
%ADD66R,0.0315X0.0106*%
%ADD67R,0.0374X0.0106*%
%ADD68R,0.0492X0.0106*%
%ADD69C,0.0060*%
%ADD70C,0.0070*%
*
G04 Plot Data ***
*
G54D28*
X0015890Y0003680D03*
X0015330D03*
G54D29*
X0017421Y0001594D03*
X0006397D03*
X0017420D03*
G54D30*
X0007000Y0009000D03*
X0008000D03*
X0012000D03*
X0013000D03*
X0017000D03*
X0018000D03*
G54D31*
X0006000D03*
X0011000D03*
X0016000D03*
G54D32*
X0001228Y0010941D03*
X0021248Y0000901D03*
G54D34*
X0006988Y0000571D03*
X0007382D03*
X0007775D03*
X0008169D03*
X0008563D03*
X0008957D03*
X0009350D03*
X0009744D03*
X0010138D03*
X0010531D03*
X0010925D03*
X0011319D03*
X0011712D03*
X0012106D03*
X0012500D03*
X0012893D03*
X0013287D03*
X0013681D03*
X0014074D03*
X0014468D03*
X0014862D03*
X0015256D03*
X0015649D03*
X0016043D03*
X0016437D03*
X0016830D03*
X0007185Y0002579D03*
X0007579D03*
X0007972D03*
X0008366D03*
X0008760D03*
X0009153D03*
X0009547D03*
X0009941D03*
X0010334D03*
X0010728D03*
X0011122D03*
X0011515D03*
X0011909D03*
X0012303D03*
X0012697D03*
X0013090D03*
X0013484D03*
X0013878D03*
X0014271D03*
X0014665D03*
X0015059D03*
X0015452D03*
X0015846D03*
X0016240D03*
X0016634D03*
G54D63*
X0017854Y0001594D03*
X0005964D03*
M02*
