*
G04 Mass Parameters ***
*
G04 Image ***
*
%INC:\DOCUMENTS AND SETTINGS\ANNA\DESKTOP\H34MOTE\H34MOTE\COPY OF H34MOTE-11.TOP*%
%ICAS*%
%MOIN*%
%IPPOS*%
%ASAXBY*%
G74*%FSLAN2X34Y34*%
*
G04 Aperture Definitions ***
*
%AMTHERMAL39*
1,1,0.0139,0,0,*
1,0,0.0120,0,0,*
21,0,0.0140,0.1000,0,0,45.0*
21,0,0.0140,0.1000,0,0,135.0*%
%AMTHERMAL46*
1,1,0.1159,0,0,*
1,0,0.0920,0,0,*
21,0,0.1160,0.0100,0,0,45.0*
21,0,0.1160,0.0100,0,0,135.0*%
%AMTHERMAL47*
1,1,0.0139,0,0,*
1,0,0.0120,0,0,*
21,0,0.0140,0.1000,0,0,216.2*
21,0,0.0140,0.1000,0,0,306.2*%
%ADD10R,0.0320X0.0380*%
%ADD11C,0.0472*%
%ADD12R,0.0354X0.1141*%
%ADD13R,0.0157X0.0708*%
%ADD14C,0.0620*%
%ADD15R,0.0620X0.0620*%
%ADD16C,0.0400*%
%ADD17C,0.1750*%
%ADD18R,0.0106X0.0315*%
%ADD19R,0.0106X0.0374*%
%ADD20R,0.0315X0.0106*%
%ADD21R,0.0374X0.0106*%
%ADD22R,0.0492X0.0106*%
%ADD23C,0.0280*%
%ADD24C,0.0100*%
%ADD25C,0.0080*%
%ADD26C,0.0120*%
%ADD27C,0.0280*%
%ADD28R,0.0320X0.0380*%
%ADD29C,0.0472*%
%ADD30C,0.0620*%
%ADD31R,0.0620X0.0620*%
%ADD32C,0.1750*%
%ADD33R,0.0354X0.1141*%
%ADD34R,0.0157X0.0708*%
%ADD35C,0.0280*%
%ADD36C,0.0820*%
%ADD37R,0.0820X0.0820*%
%ADD38C,0.0866*%
%ADD39THERMAL39*%
%ADD40C,0.0450*%
%ADD41C,0.0300*%
%ADD42C,0.0450*%
%ADD43C,0.0472*%
%ADD44C,0.0820*%
%ADD45R,0.0820X0.0820*%
%ADD46THERMAL46*%
%ADD47THERMAL47*%
%ADD48C,0.0472*%
%ADD49C,0.0010*%
%ADD50R,0.0320X0.0380*%
%ADD51C,0.0472*%
%ADD52R,0.0354X0.1142*%
%ADD53R,0.0157X0.0708*%
%ADD54C,0.0620*%
%ADD55R,0.0620X0.0620*%
%ADD56C,0.0420*%
%ADD57C,0.1750*%
%ADD58R,0.0106X0.0315*%
%ADD59R,0.0106X0.0374*%
%ADD60R,0.0315X0.0106*%
%ADD61R,0.0374X0.0106*%
%ADD62R,0.0492X0.0106*%
%ADD63R,0.0354X0.1142*%
%ADD64R,0.0106X0.0315*%
%ADD65R,0.0106X0.0374*%
%ADD66R,0.0315X0.0106*%
%ADD67R,0.0374X0.0106*%
%ADD68R,0.0492X0.0106*%
%ADD69C,0.0060*%
%ADD70C,0.0070*%
*
G04 Plot Data ***
*
G54D24*
G01X0012910Y0005160D02*
X0012390D01*
Y0005570D01*
X0012340D01*
X0011178Y0006972D02*
Y0006456D01*
X0012910Y0004680D02*
Y0005160D01*
X0014540Y0006970D02*
X0014039D01*
X0012597Y0006333D02*
Y0006137D01*
X0014450Y0007060D02*
X0012600D01*
X0014670Y0006840D02*
Y0006660D01*
X0012630Y0006700D02*
X0012590D01*
X0012630Y0006520D02*
X0012590D01*
X0013750Y0007040D02*
Y0006975D01*
X0012860Y0006270D02*
Y0006120D01*
X0013950Y0007500D02*
Y0006980D01*
X0014490Y0007020D02*
Y0006660D01*
X0013410Y0007500D02*
Y0007040D01*
X0012910Y0006420D02*
Y0006730D01*
X0014030Y0006980D02*
X0014326Y0006660D01*
X0013320Y0007500D02*
Y0007040D01*
X0014310Y0007200D02*
Y0006677D01*
X0013500Y0007500D02*
Y0007040D01*
X0012870Y0006420D02*
Y0006270D01*
X0013590Y0007500D02*
Y0007040D01*
X0013770Y0007500D02*
Y0006980D01*
X0013050Y0006420D02*
Y0006270D01*
X0012960Y0006420D02*
Y0006270D01*
X0012690Y0006420D02*
Y0006120D01*
X0014040Y0007470D02*
Y0006969D01*
X0014400Y0007110D02*
Y0006660D01*
X0012597Y0006137D02*
Y0006120D01*
X0012630Y0007040D02*
Y0006420D01*
Y0006430D02*
X0012590D01*
X0013190Y0007040D02*
X0012630D01*
X0014010Y0007500D02*
X0013040D01*
X0014010D02*
X0014820Y0006690D01*
X0014220Y0007290D02*
Y0006775D01*
X0014820Y0006690D02*
Y0006660D01*
X0014030Y0006980D02*
X0013770D01*
X0014180Y0007330D02*
X0012870D01*
X0012600Y0007060D02*
Y0006120D01*
X0014130Y0007380D02*
Y0006872D01*
X0013230Y0007500D02*
Y0007040D01*
X0012860Y0006120D02*
X0012597D01*
X0012780Y0006420D02*
Y0006120D01*
X0012597Y0006137D02*
Y0006120D01*
X0014810Y0006700D02*
X0014289D01*
X0012590Y0007050D02*
Y0006333D01*
X0013680Y0007500D02*
Y0007040D01*
X0013130Y0006340D02*
X0012590D01*
X0014760Y0006750D02*
Y0006660D01*
X0013210Y0006420D02*
X0013060Y0006270D01*
X0014360Y0007150D02*
X0012690D01*
X0014090Y0007420D02*
X0012960D01*
X0014270Y0007240D02*
X0012780D01*
X0012860Y0006160D02*
X0012597D01*
X0012860Y0006250D02*
X0012597D01*
X0013860Y0007500D02*
Y0006980D01*
X0012690Y0007150D02*
Y0007040D01*
X0014820Y0006660D02*
X0014326D01*
X0012630Y0006970D02*
X0012590D01*
X0012870Y0007330D02*
Y0007040D01*
X0012780Y0007240D02*
Y0007040D01*
X0013140Y0006420D02*
Y0006350D01*
X0014630Y0006880D02*
X0014122D01*
X0014720Y0006790D02*
X0014206D01*
X0012630D02*
X0012590D01*
X0013040Y0007500D02*
X0012590Y0007050D01*
X0012910Y0007040D02*
Y0006730D01*
X0012630Y0006880D02*
X0012590D01*
X0012630Y0006610D02*
X0012590D01*
X0013190Y0006420D02*
X0012630D01*
X0013190Y0007040D02*
Y0006420D01*
X0014580Y0006930D02*
Y0006660D01*
X0013210Y0006420D02*
X0013190D01*
X0013060Y0006270D02*
X0012860D01*
X0013750Y0007040D02*
X0013190D01*
X0013140Y0007500D02*
Y0007040D01*
X0013050Y0007500D02*
Y0007040D01*
X0012960Y0007420D02*
Y0007040D01*
X0017190Y0006490D02*
Y0005440D01*
X0017100Y0006490D02*
Y0005440D01*
X0017010Y0006490D02*
Y0005440D01*
X0016920Y0006490D02*
Y0005440D01*
X0016830Y0006490D02*
Y0005440D01*
X0016740Y0006490D02*
Y0005440D01*
X0016650Y0006490D02*
Y0005440D01*
X0016560Y0006490D02*
Y0005440D01*
X0016470Y0006490D02*
Y0005440D01*
X0016380Y0006490D02*
Y0005440D01*
X0016290Y0006490D02*
Y0005440D01*
X0016200Y0006490D02*
Y0005440D01*
X0016110Y0006490D02*
Y0005440D01*
X0016020Y0006490D02*
Y0005440D01*
X0015930Y0006490D02*
Y0005440D01*
X0015840Y0006490D02*
Y0005440D01*
X0015750Y0006490D02*
Y0005440D01*
X0015660Y0006490D02*
Y0005440D01*
X0015570Y0006490D02*
Y0005440D01*
X0015480Y0006490D02*
Y0005440D01*
X0015390Y0006490D02*
Y0005440D01*
X0015300Y0006490D02*
Y0005440D01*
X0015210Y0006490D02*
Y0005440D01*
X0015120Y0006490D02*
Y0005440D01*
X0014400Y0006330D02*
Y0005440D01*
X0015030Y0006490D02*
Y0005440D01*
X0014940Y0006264D02*
Y0005440D01*
X0014850Y0006194D02*
Y0005440D01*
X0014760Y0006171D02*
Y0005440D01*
X0014670Y0006179D02*
Y0005440D01*
X0014580Y0006225D02*
Y0005440D01*
X0014490Y0006275D02*
Y0005440D01*
X0014310Y0006427D02*
Y0005440D01*
X0014220Y0006490D02*
Y0005440D01*
X0022050Y0006490D02*
Y0005440D01*
X0013980Y0006080D02*
X0014190Y0005870D01*
X0021836Y0006036D02*
X0021610Y0005810D01*
X0013980Y0006270D02*
X0013860D01*
X0021368Y0005600D02*
X0014190D01*
X0014409Y0006320D02*
X0013860D01*
X0014574Y0006230D02*
X0013980D01*
X0021398Y0006050D02*
X0014010D01*
X0021296Y0005870D02*
X0014190D01*
X0021291Y0005780D02*
X0014190D01*
X0014130Y0006490D02*
Y0005930D01*
X0021780Y0005539D02*
Y0005440D01*
X0021690Y0005500D02*
Y0005440D01*
X0021600Y0005490D02*
Y0005440D01*
X0021510Y0005506D02*
Y0005440D01*
X0021330Y0005655D02*
Y0005440D01*
X0021240Y0006490D02*
Y0005440D01*
X0021150Y0006490D02*
Y0005440D01*
X0021060Y0006490D02*
Y0005440D01*
X0020970Y0006490D02*
Y0005440D01*
X0020880Y0006490D02*
Y0005440D01*
X0020790Y0006490D02*
Y0005440D01*
X0020700Y0006490D02*
Y0005440D01*
X0020610Y0006490D02*
Y0005440D01*
X0020520Y0006490D02*
Y0005440D01*
X0020430Y0006490D02*
Y0005440D01*
X0020340Y0006490D02*
Y0005440D01*
X0020250Y0006490D02*
Y0005440D01*
X0020160Y0006490D02*
Y0005440D01*
X0020070Y0006490D02*
Y0005440D01*
X0019980Y0006490D02*
Y0005440D01*
X0019890Y0006490D02*
Y0005440D01*
X0019800Y0006490D02*
Y0005440D01*
X0019710Y0006490D02*
Y0005440D01*
X0019620Y0006490D02*
Y0005440D01*
X0019530Y0006490D02*
Y0005440D01*
X0019440Y0006490D02*
Y0005440D01*
X0019350Y0006490D02*
Y0005440D01*
X0019260Y0006490D02*
Y0005440D01*
X0019170Y0006490D02*
Y0005440D01*
X0019080Y0006490D02*
Y0005440D01*
X0018990Y0006490D02*
Y0005440D01*
X0018900Y0006490D02*
Y0005440D01*
X0018810Y0006490D02*
Y0005440D01*
X0018720Y0006490D02*
Y0005440D01*
X0018630Y0006490D02*
Y0005440D01*
X0018540Y0006490D02*
Y0005440D01*
X0018450Y0006490D02*
Y0005440D01*
X0018360Y0006490D02*
Y0005440D01*
X0018270Y0006490D02*
Y0005440D01*
X0018180Y0006490D02*
Y0005440D01*
X0018090Y0006490D02*
Y0005440D01*
X0014040Y0006490D02*
Y0006020D01*
X0017910Y0006490D02*
Y0005440D01*
X0017820Y0006490D02*
Y0005440D01*
X0017730Y0006490D02*
Y0005440D01*
X0017640Y0006490D02*
Y0005440D01*
X0017550Y0006490D02*
Y0005440D01*
X0017460Y0006490D02*
Y0005440D01*
X0017370Y0006490D02*
Y0005440D01*
X0017280Y0006490D02*
Y0005440D01*
X0022090Y0006230D02*
X0014906D01*
X0014326Y0006410D02*
X0013860D01*
X0021420Y0006490D02*
Y0006067D01*
X0014252Y0006490D02*
X0014404Y0006325D01*
X0022090Y0006490D02*
X0014993D01*
X0021510D02*
Y0006114D01*
X0014252Y0006490D02*
X0013921D01*
X0018000D02*
Y0005440D01*
X0022060D02*
X0022110Y0005430D01*
X0021910D01*
X0021920Y0005420D01*
X0022090D02*
X0021920D01*
X0022090Y0006490D02*
Y0005420D01*
X0013980Y0006270D02*
Y0006080D01*
X0021420Y0005552D02*
Y0005440D01*
X0021960Y0006490D02*
Y0005440D01*
X0014190Y0005870D02*
Y0005440D01*
X0022060D02*
X0014190D01*
X0022050Y0005430D02*
Y0005420D01*
X0021313Y0005690D02*
X0014190D01*
X0021960Y0005430D02*
Y0005420D01*
X0021870Y0005623D02*
Y0005440D01*
X0022090Y0006050D02*
X0021821D01*
X0013950Y0006490D02*
Y0006270D01*
X0022090Y0005870D02*
X0021924D01*
X0022090Y0005780D02*
X0021928D01*
X0022090Y0005690D02*
X0021906D01*
X0022090Y0005600D02*
X0021851D01*
X0022090Y0005960D02*
X0021892D01*
X0021870Y0006490D02*
Y0005996D01*
X0021780Y0006490D02*
Y0006081D01*
X0021690Y0006490D02*
Y0006120D01*
X0021600Y0006490D02*
Y0006130D01*
X0021327Y0005960D02*
X0014100D01*
X0021384Y0006036D02*
X0021610Y0005810D01*
X0021836Y0005584D02*
X0021610Y0005810D01*
X0021384Y0005584D02*
X0021610Y0005810D01*
X0013860Y0006467D02*
Y0006270D01*
X0022090Y0005510D02*
X0021721D01*
X0021498D02*
X0014190D01*
X0014404Y0006325D02*
X0014405Y0006324D01*
X0022090Y0006320D02*
X0014975D01*
X0021330Y0006490D02*
Y0005965D01*
X0022090Y0006410D02*
X0014999D01*
X0022090Y0006140D02*
X0013980D01*
X0016220Y0005140D02*
Y0004150D01*
X0016130Y0005140D02*
Y0004150D01*
X0016040Y0005140D02*
Y0004150D01*
X0015950Y0005140D02*
Y0004150D01*
X0015860Y0005140D02*
Y0004150D01*
X0015770Y0005140D02*
Y0004150D01*
X0015680Y0005140D02*
Y0004150D01*
X0015590Y0005140D02*
Y0004150D01*
X0015500Y0005140D02*
Y0004150D01*
X0015410Y0005140D02*
Y0004150D01*
X0015320Y0005140D02*
Y0004150D01*
X0015230Y0005140D02*
Y0004150D01*
X0015140Y0005140D02*
Y0004150D01*
X0015050Y0005140D02*
Y0004150D01*
X0014960Y0005140D02*
Y0004150D01*
X0014870Y0005140D02*
Y0004150D01*
X0014780Y0005140D02*
Y0004150D01*
X0014690Y0005140D02*
Y0004150D01*
X0014600Y0005140D02*
Y0004150D01*
X0014510Y0005140D02*
Y0004150D01*
X0014420Y0005140D02*
Y0004150D01*
X0014330Y0005140D02*
Y0004150D01*
X0014240Y0005140D02*
Y0004150D01*
X0014150Y0005140D02*
Y0004150D01*
X0021980Y0004330D02*
X0012610D01*
X0014060Y0005140D02*
Y0004150D01*
X0013970Y0005088D02*
Y0004150D01*
X0021530Y0005140D02*
Y0004997D01*
X0013790Y0004810D02*
Y0004150D01*
X0013700Y0004810D02*
Y0004150D01*
X0013610Y0004810D02*
Y0004150D01*
X0013520Y0004810D02*
Y0004150D01*
X0013430Y0004810D02*
Y0004150D01*
X0021440Y0004425D02*
Y0004150D01*
X0013250Y0004810D02*
Y0004150D01*
X0013160Y0004810D02*
Y0004150D01*
X0013070Y0004810D02*
Y0004150D01*
X0012980Y0004810D02*
Y0004150D01*
X0012620Y0004810D02*
Y0004150D01*
X0012890Y0004810D02*
Y0004150D01*
X0021980Y0004420D02*
X0021792D01*
X0021846Y0004916D02*
X0021620Y0004690D01*
X0021355Y0004870D02*
X0013950D01*
X0021313Y0004780D02*
X0012610D01*
X0021313Y0004600D02*
X0012610D01*
X0021448Y0004420D02*
X0012610D01*
X0012800Y0004810D02*
Y0004150D01*
X0013950Y0004810D02*
X0012610D01*
X0020990Y0005140D02*
Y0004150D01*
X0020900Y0005140D02*
Y0004150D01*
X0020810Y0005140D02*
Y0004150D01*
X0020720Y0005140D02*
Y0004150D01*
X0020630Y0005140D02*
Y0004150D01*
X0020540Y0005140D02*
Y0004150D01*
X0020450Y0005140D02*
Y0004150D01*
X0020360Y0005140D02*
Y0004150D01*
X0020270Y0005140D02*
Y0004150D01*
X0020180Y0005140D02*
Y0004150D01*
X0020090Y0005140D02*
Y0004150D01*
X0020000Y0005140D02*
Y0004150D01*
X0019910Y0005140D02*
Y0004150D01*
X0019820Y0005140D02*
Y0004150D01*
X0019730Y0005140D02*
Y0004150D01*
X0019640Y0005140D02*
Y0004150D01*
X0019550Y0005140D02*
Y0004150D01*
X0019460Y0005140D02*
Y0004150D01*
X0019370Y0005140D02*
Y0004150D01*
X0019280Y0005140D02*
Y0004150D01*
X0019190Y0005140D02*
Y0004150D01*
X0019100Y0005140D02*
Y0004150D01*
X0019010Y0005140D02*
Y0004150D01*
X0018920Y0005140D02*
Y0004150D01*
X0018830Y0005140D02*
Y0004150D01*
X0018740Y0005140D02*
Y0004150D01*
X0018650Y0005140D02*
Y0004150D01*
X0018560Y0005140D02*
Y0004150D01*
X0018470Y0005140D02*
Y0004150D01*
X0018380Y0005140D02*
Y0004150D01*
X0018290Y0005140D02*
Y0004150D01*
X0018200Y0005140D02*
Y0004150D01*
X0018110Y0005140D02*
Y0004150D01*
X0018020Y0005140D02*
Y0004150D01*
X0017930Y0005140D02*
Y0004150D01*
X0017840Y0005140D02*
Y0004150D01*
X0017750Y0005140D02*
Y0004150D01*
X0017660Y0005140D02*
Y0004150D01*
X0017570Y0005140D02*
Y0004150D01*
X0017480Y0005140D02*
Y0004150D01*
X0017390Y0005140D02*
Y0004150D01*
X0012610Y0004810D02*
Y0004150D01*
X0017210Y0005140D02*
Y0004150D01*
X0017120Y0005140D02*
Y0004150D01*
X0017030Y0005140D02*
Y0004150D01*
X0016940Y0005140D02*
Y0004150D01*
X0016850Y0005140D02*
Y0004150D01*
X0016760Y0005140D02*
Y0004150D01*
X0016670Y0005140D02*
Y0004150D01*
X0016580Y0005140D02*
Y0004150D01*
X0016490Y0005140D02*
Y0004150D01*
X0016400Y0005140D02*
Y0004150D01*
X0016310Y0005140D02*
Y0004150D01*
X0021980Y0004510D02*
X0021884D01*
X0021980Y0004690D02*
X0021940D01*
X0021890Y0005140D02*
Y0004862D01*
X0021448Y0004960D02*
X0013950D01*
X0013340Y0004810D02*
Y0004150D01*
X0013880Y0004810D02*
Y0004150D01*
X0021980Y0005050D02*
X0013955D01*
X0021440Y0005140D02*
Y0004954D01*
X0021394Y0004916D02*
X0021620Y0004690D01*
X0021846Y0004464D02*
X0021620Y0004690D01*
X0021394Y0004464D02*
X0021620Y0004690D01*
X0021350Y0005140D02*
Y0004862D01*
X0017300Y0005140D02*
Y0004150D01*
X0021620Y0005140D02*
Y0005010D01*
X0021710Y0005140D02*
Y0004997D01*
X0021800Y0005140D02*
Y0004954D01*
X0012710Y0004810D02*
Y0004150D01*
X0021980Y0005140D02*
X0013979D01*
X0021300Y0004690D02*
X0012610D01*
X0021990Y0004150D02*
X0012610D01*
X0013950Y0005039D02*
Y0004810D01*
X0021980Y0005140D02*
Y0004160D01*
X0021970Y0004170D02*
X0021980Y0004160D01*
X0021970Y0004170D02*
X0021960Y0004160D01*
X0021990Y0004150D01*
X0021980Y0004240D02*
X0012610D01*
X0021355Y0004510D02*
X0012610D01*
X0021890Y0004518D02*
Y0004150D01*
X0021800Y0004425D02*
Y0004150D01*
X0021710Y0004383D02*
Y0004150D01*
X0021620Y0004370D02*
Y0004150D01*
X0021530Y0004383D02*
Y0004150D01*
X0021350Y0004518D02*
Y0004150D01*
X0021260Y0005140D02*
Y0004150D01*
X0021170Y0005140D02*
Y0004150D01*
X0021080Y0005140D02*
Y0004150D01*
X0021980Y0004960D02*
X0021792D01*
X0021980Y0004870D02*
X0021884D01*
X0021980Y0004780D02*
X0021927D01*
X0021980Y0004600D02*
X0021927D01*
X0010730Y0007610D02*
Y0007090D01*
X0010550Y0007790D02*
Y0007090D01*
X0010460Y0007880D02*
Y0007090D01*
X0010370Y0007970D02*
Y0007090D01*
X0010280Y0008060D02*
Y0007090D01*
X0009690Y0008650D02*
X0008250D01*
X0011090Y0007170D02*
Y0006760D01*
X0009920Y0008420D02*
Y0007297D01*
X0009481Y0007090D02*
X0006590D01*
X0009380Y0008960D02*
Y0007090D01*
X0009290Y0009050D02*
Y0007090D01*
X0009200Y0009140D02*
Y0007090D01*
X0009110Y0009230D02*
Y0007090D01*
X0009020Y0009320D02*
Y0007090D01*
X0008930Y0009410D02*
Y0007090D01*
X0008840Y0009500D02*
Y0007090D01*
X0008750Y0009590D02*
Y0007090D01*
X0008660Y0009680D02*
Y0007090D01*
X0008570Y0009770D02*
Y0007090D01*
X0010950Y0007390D02*
X0006590D01*
X0008390Y0009840D02*
Y0009181D01*
X0008300Y0009840D02*
Y0009308D01*
X0008210Y0009840D02*
Y0009375D01*
X0008120Y0009840D02*
Y0009413D01*
X0008030Y0009840D02*
Y0009429D01*
X0007940Y0009840D02*
Y0009426D01*
X0007850Y0009840D02*
Y0009403D01*
X0007760Y0009840D02*
Y0009357D01*
X0007670Y0009840D02*
Y0009276D01*
X0009330Y0009010D02*
X0008430D01*
X0006590Y0008870D02*
Y0007090D01*
X0007400Y0009840D02*
Y0009158D01*
X0007310Y0009840D02*
Y0009298D01*
X0007220Y0009840D02*
Y0009369D01*
X0007130Y0009840D02*
Y0009410D01*
X0007040Y0009840D02*
Y0009428D01*
X0006950Y0009840D02*
Y0009427D01*
X0006860Y0009840D02*
Y0009406D01*
X0007490Y0009840D02*
Y0007090D01*
X0009500Y0007210D02*
X0006590D01*
X0008520Y0009820D02*
X0006590D01*
X0008610Y0009730D02*
X0006590D01*
X0008700Y0009640D02*
X0006590D01*
X0008790Y0009550D02*
X0006590D01*
X0006680Y0009840D02*
Y0009287D01*
Y0008713D02*
Y0007090D01*
X0009420Y0008920D02*
X0008422D01*
X0006673Y0009280D02*
X0006590D01*
X0007614Y0009190D02*
X0007386D01*
X0007582Y0009100D02*
X0007418D01*
X0007570Y0009010D02*
X0007430D01*
X0009600Y0008740D02*
X0008342D01*
X0006750Y0008650D02*
X0006590D01*
X0009780Y0008560D02*
X0006590D01*
X0009870Y0008470D02*
X0006590D01*
X0009960Y0008380D02*
X0006590D01*
X0010050Y0008290D02*
X0006590D01*
X0010140Y0008200D02*
X0006590D01*
X0010230Y0008110D02*
X0006590D01*
X0010320Y0008020D02*
X0006590D01*
X0010410Y0007930D02*
X0006590D01*
X0010500Y0007840D02*
X0006590D01*
X0010590Y0007750D02*
X0006590D01*
X0010680Y0007660D02*
X0006590D01*
X0010640Y0007700D02*
Y0007090D01*
X0010770Y0007570D02*
X0006590D01*
X0010860Y0007480D02*
X0006590D01*
X0010100Y0008240D02*
Y0007090D01*
X0009562Y0007300D02*
X0006590D01*
X0011230Y0007030D02*
X0010790D01*
X0011270Y0006940D02*
X0010880D01*
X0006614Y0009190D02*
X0006590D01*
X0007040Y0008572D02*
Y0007090D01*
X0006950Y0008573D02*
Y0007090D01*
X0011040Y0007300D02*
X0009917D01*
X0006770Y0008637D02*
Y0007090D01*
X0008480Y0009840D02*
Y0007090D01*
X0007781Y0009370D02*
X0007219D01*
X0007673Y0009280D02*
X0007326D01*
X0010190Y0008150D02*
Y0007090D01*
X0011270Y0007017D02*
Y0006760D01*
X0009470Y0008870D02*
Y0007090D01*
X0006696Y0009304D02*
X0007000Y0009000D01*
X0007304Y0008696D02*
X0007000Y0009000D01*
X0006696Y0008696D02*
X0007000Y0009000D01*
X0010820Y0007520D02*
Y0007000D01*
X0011270Y0006850D02*
X0010970D01*
X0010910Y0007430D02*
Y0006910D01*
X0011180Y0007057D02*
Y0006760D01*
X0007657Y0008740D02*
X0007342D01*
X0007605Y0008830D02*
X0007395D01*
X0007577Y0008920D02*
X0007422D01*
X0010010Y0008330D02*
Y0007090D01*
X0006860Y0008593D02*
Y0007090D01*
X0009740Y0008600D02*
Y0007370D01*
X0009480Y0007120D02*
X0006590D01*
X0009650Y0008690D02*
Y0007354D01*
X0009830Y0008510D02*
Y0007354D01*
X0008500Y0009840D02*
X0006590D01*
X0011117Y0007120D02*
X0010000D01*
X0008500Y0009840D02*
X0011070Y0007270D01*
X0011270Y0006760D02*
X0011000D01*
Y0006820D02*
Y0006760D01*
X0010730Y0007090D02*
X0011000Y0006820D01*
X0007750Y0008650D02*
X0007250D01*
X0007304Y0009304D02*
X0007000Y0009000D01*
X0011000Y0007340D02*
Y0006820D01*
X0006657Y0008740D02*
X0006590D01*
X0006770Y0009840D02*
Y0009363D01*
X0010730Y0007090D02*
X0009999D01*
X0009560Y0008780D02*
Y0007297D01*
X0011077Y0007210D02*
X0009980D01*
X0008390Y0008819D02*
Y0007090D01*
X0008300Y0008692D02*
Y0007090D01*
X0008210Y0008625D02*
Y0007090D01*
X0008120Y0008587D02*
Y0007090D01*
X0008030Y0008571D02*
Y0007090D01*
X0007940Y0008574D02*
Y0007090D01*
X0007850Y0008597D02*
Y0007090D01*
X0007760Y0008643D02*
Y0007090D01*
X0007670Y0008724D02*
Y0007090D01*
X0007580Y0008908D02*
Y0007090D01*
X0008970Y0009370D02*
X0008219D01*
X0009060Y0009280D02*
X0008326D01*
X0009150Y0009190D02*
X0008386D01*
X0009240Y0009100D02*
X0008418D01*
X0006781Y0009370D02*
X0006590D01*
X0008880Y0009460D02*
X0006590D01*
X0009510Y0008830D02*
X0008395D01*
X0006605D02*
X0006590D01*
Y0009840D02*
Y0009129D01*
X0007580Y0009840D02*
Y0009092D01*
X0007400Y0008842D02*
Y0007090D01*
X0007310Y0008702D02*
Y0007090D01*
X0007220Y0008630D02*
Y0007090D01*
X0007130Y0008590D02*
Y0007090D01*
X0012420Y0007770D02*
X0011640D01*
X0012420Y0007680D02*
X0011640D01*
X0012420Y0007590D02*
X0011640D01*
X0012420Y0007500D02*
X0011700D01*
X0012420Y0007410D02*
X0011790D01*
X0012420Y0008760D02*
X0012357D01*
X0012420Y0006420D02*
X0012336D01*
X0011820Y0010020D02*
Y0009390D01*
X0012420Y0008580D02*
X0012092D01*
X0011900Y0007320D02*
X0011880D01*
X0012420Y0006600D02*
X0012336D01*
X0012420Y0009210D02*
X0012375D01*
X0012420Y0009480D02*
X0011640D01*
X0012420Y0008850D02*
X0012403D01*
X0012420Y0008670D02*
X0012276D01*
X0011820Y0008609D02*
Y0007380D01*
X0012420Y0008490D02*
X0011640D01*
X0012420Y0008400D02*
X0011640D01*
X0012420Y0008310D02*
X0011640D01*
X0012420Y0008220D02*
X0011640D01*
X0012420Y0008130D02*
X0011640D01*
X0012420Y0008040D02*
X0011640D01*
X0012420Y0007950D02*
X0011640D01*
X0012420Y0007860D02*
X0011640D01*
X0012420Y0006333D02*
X0012336D01*
X0011724Y0008670D02*
X0011640D01*
X0012090Y0010020D02*
Y0009420D01*
X0012420Y0009930D02*
X0011640D01*
X0012420Y0009840D02*
X0011640D01*
X0012420Y0009750D02*
X0011640D01*
X0012420Y0009660D02*
X0011640D01*
X0012420Y0009570D02*
X0011640D01*
X0011910Y0008579D02*
Y0007320D01*
X0012420Y0006690D02*
X0012336D01*
X0012420Y0009300D02*
X0012308D01*
X0011692D02*
X0011640D01*
X0011730Y0010020D02*
Y0009334D01*
X0011640Y0007560D02*
X0011880Y0007320D01*
X0011908Y0008580D02*
X0011640D01*
X0012360Y0006700D02*
Y0006333D01*
X0012420Y0006510D02*
X0012336D01*
X0012270Y0008665D02*
Y0007320D01*
X0012420Y0010020D02*
X0011640D01*
X0012336Y0006700D02*
Y0006333D01*
X0012420Y0006700D02*
Y0006333D01*
X0012360Y0010020D02*
Y0009235D01*
X0011730Y0008665D02*
Y0007470D01*
X0011819Y0009390D02*
X0011640D01*
X0011900Y0007320D02*
X0011880D01*
X0012420Y0006700D02*
X0012336D01*
Y0006456D02*
X0012163D01*
X0011900Y0007320D02*
Y0007300D01*
X0011696Y0009304D02*
X0012000Y0009000D01*
X0012304Y0008696D02*
X0012000Y0009000D01*
X0011696Y0008696D02*
X0012000Y0009000D01*
X0012304Y0009304D02*
X0012000Y0009000D01*
X0012180Y0007320D02*
Y0007010D01*
X0012000Y0010020D02*
Y0009430D01*
X0012180Y0010020D02*
Y0009390D01*
X0012270Y0010020D02*
Y0009334D01*
X0011640Y0010020D02*
Y0009235D01*
X0012420Y0009390D02*
X0012181D01*
X0012420Y0010020D02*
Y0009092D01*
X0011910Y0010020D02*
Y0009420D01*
X0012420Y0008908D02*
Y0007320D01*
X0012360Y0008765D02*
Y0007320D01*
X0011640Y0008765D02*
Y0007560D01*
X0012180Y0008609D02*
Y0007320D01*
X0012090Y0008579D02*
Y0007320D01*
X0012000Y0008570D02*
Y0007320D01*
X0012420D02*
X0011900D01*
X0016330Y0010020D02*
Y0009430D01*
X0016240Y0010020D02*
Y0009430D01*
X0016150Y0010020D02*
Y0009430D01*
X0016060Y0010020D02*
Y0009430D01*
X0015880Y0010020D02*
Y0009430D01*
X0015790Y0010020D02*
Y0009430D01*
X0015700Y0010020D02*
Y0009430D01*
X0012640Y0010020D02*
Y0009235D01*
X0015520Y0010020D02*
Y0006840D01*
X0015430Y0010020D02*
Y0006840D01*
X0013820Y0008200D02*
X0014950Y0007070D01*
X0016780Y0008630D02*
Y0006840D01*
X0015250Y0010020D02*
Y0006996D01*
X0015340Y0010020D02*
Y0006840D01*
X0015070Y0010020D02*
Y0007089D01*
X0014980Y0010020D02*
Y0007080D01*
X0014620Y0010020D02*
Y0007400D01*
X0014530Y0010020D02*
Y0007490D01*
X0014440Y0010020D02*
Y0007580D01*
X0014350Y0010020D02*
Y0007670D01*
X0014260Y0010020D02*
Y0007760D01*
X0014170Y0010020D02*
Y0007850D01*
X0014080Y0010020D02*
Y0007940D01*
X0016665Y0008730D02*
X0016430D01*
X0013900Y0010020D02*
Y0008120D01*
X0013810Y0010020D02*
Y0008200D01*
X0013720Y0010020D02*
Y0008200D01*
X0013630Y0010020D02*
Y0008200D01*
X0012609Y0009180D02*
X0012590D01*
X0012609Y0008820D02*
X0012590D01*
X0016830Y0007110D02*
X0014910D01*
X0012590Y0008870D02*
Y0008200D01*
X0013360Y0008765D02*
Y0008200D01*
X0016430Y0009000D02*
X0016000D01*
X0016830Y0006930D02*
X0015290D01*
X0016830Y0009990D02*
X0012590D01*
X0016830Y0009900D02*
X0012590D01*
X0016830Y0009810D02*
X0012590D01*
X0016830Y0009720D02*
X0012590D01*
X0016830Y0009630D02*
X0012590D01*
X0016510Y0010020D02*
Y0006840D01*
X0012765Y0009360D02*
X0012590D01*
X0012665Y0009270D02*
X0012590D01*
X0013540Y0010020D02*
Y0008200D01*
X0016830Y0009540D02*
X0012590D01*
X0012765Y0008640D02*
X0012590D01*
X0016830Y0009450D02*
X0012590D01*
X0016830Y0008550D02*
X0012590D01*
X0016830Y0008460D02*
X0012590D01*
X0016830Y0008370D02*
X0012590D01*
X0016830Y0008280D02*
X0012590D01*
X0016830Y0008190D02*
X0013830D01*
X0016830Y0008100D02*
X0013920D01*
X0016830Y0008010D02*
X0014010D01*
X0016830Y0007920D02*
X0014100D01*
X0016830Y0007830D02*
X0014190D01*
X0016830Y0007740D02*
X0014280D01*
X0016830Y0007560D02*
X0014460D01*
X0016830Y0007470D02*
X0014550D01*
X0016830Y0007380D02*
X0014640D01*
X0014890Y0010020D02*
Y0007130D01*
X0016060Y0008570D02*
Y0006840D01*
X0015970Y0008570D02*
Y0006840D01*
X0015880Y0008570D02*
Y0006840D01*
X0012820Y0010020D02*
Y0009390D01*
X0013090Y0008579D02*
Y0008200D01*
X0016830Y0007020D02*
X0015227D01*
X0013990Y0010020D02*
Y0008030D01*
X0016830Y0007200D02*
X0014820D01*
X0012696Y0009304D02*
X0013000Y0009000D01*
X0013304Y0008696D02*
X0013000Y0009000D01*
X0012696Y0008696D02*
X0013000Y0009000D01*
X0013304Y0009304D02*
X0013000Y0009000D01*
X0016000Y0009430D02*
Y0009000D01*
Y0008570D02*
Y0009000D01*
X0015570D02*
X0016000D01*
X0012640Y0008765D02*
Y0008200D01*
X0016830Y0007650D02*
X0014370D01*
X0016830Y0007290D02*
X0014730D01*
X0015970Y0010020D02*
Y0009430D01*
X0014800Y0010020D02*
Y0007220D01*
X0016609Y0008820D02*
X0016430D01*
X0016579Y0008910D02*
X0016430D01*
X0013450Y0010020D02*
Y0008200D01*
X0016570Y0009000D02*
X0016430D01*
X0016579Y0009090D02*
X0016430D01*
X0016609Y0009180D02*
X0016430D01*
X0016665Y0009270D02*
X0016430D01*
X0016765Y0009360D02*
X0016430D01*
X0015700Y0008570D02*
Y0006840D01*
X0015790Y0008570D02*
Y0006840D01*
X0013270Y0008665D02*
Y0008200D01*
X0015610Y0008570D02*
Y0006840D01*
X0012910Y0010020D02*
Y0009420D01*
X0012730Y0010020D02*
Y0009334D01*
X0016600Y0010020D02*
Y0009158D01*
X0012910Y0008579D02*
Y0008200D01*
X0013180Y0008609D02*
Y0008200D01*
X0016430Y0009430D02*
X0015570D01*
Y0008570D01*
X0016430D02*
X0015570D01*
X0016430Y0009430D02*
Y0008570D01*
X0012820Y0008609D02*
Y0008200D01*
X0012730Y0008665D02*
Y0008200D01*
X0012665Y0008730D02*
X0012590D01*
X0016830Y0006840D02*
X0015310D01*
X0016830Y0010020D02*
X0012590D01*
X0013820Y0008200D02*
X0012590D01*
X0016830Y0008605D02*
Y0006840D01*
X0016690Y0010020D02*
Y0009298D01*
X0016600Y0008842D02*
Y0006840D01*
X0016765Y0008640D02*
X0016430D01*
X0016420Y0010020D02*
Y0009430D01*
X0012590Y0010020D02*
Y0009129D01*
X0013180Y0010020D02*
Y0009390D01*
X0013090Y0010020D02*
Y0009420D01*
X0015570Y0009360D02*
X0013235D01*
X0015570Y0009270D02*
X0013334D01*
X0015570Y0009180D02*
X0013390D01*
X0015570Y0009090D02*
X0013420D01*
X0013000Y0010020D02*
Y0009430D01*
X0013360Y0010020D02*
Y0009235D01*
X0015610Y0010020D02*
Y0009430D01*
X0013000Y0008570D02*
Y0008200D01*
X0014710Y0010020D02*
Y0007310D01*
X0015570Y0009000D02*
X0013430D01*
X0015570Y0008910D02*
X0013420D01*
X0015570Y0008820D02*
X0013390D01*
X0015570Y0008730D02*
X0013334D01*
X0015570Y0008640D02*
X0013235D01*
X0016830Y0010020D02*
Y0009395D01*
X0013270Y0010020D02*
Y0009334D01*
X0015160Y0010020D02*
Y0007065D01*
X0016690Y0008702D02*
Y0006840D01*
X0016780Y0010020D02*
Y0009369D01*
X0016420Y0008570D02*
Y0006840D01*
X0016330Y0008570D02*
Y0006840D01*
X0016240Y0008570D02*
Y0006840D01*
X0016150Y0008570D02*
Y0006840D01*
X0011202Y0004997D02*
X0011005D01*
Y0005311D02*
Y0004997D01*
X0010700Y0004992D02*
Y0004120D01*
X0011005Y0005200D02*
X0010985D01*
X0012410Y0004990D02*
Y0004930D01*
X0012363Y0004840D02*
X0010600D01*
X0010610Y0004986D02*
Y0004120D01*
X0011942Y0004997D02*
X0011793D01*
X0012230Y0004161D02*
Y0004120D01*
X0011150Y0004997D02*
Y0004590D01*
X0012360Y0004750D02*
X0010520D01*
Y0004810D02*
Y0004120D01*
X0012336Y0004997D02*
X0012139D01*
X0011596D02*
X0011548D01*
X0011690D02*
Y0004590D01*
X0010890Y0004570D02*
X0010520D01*
X0012139Y0004997D02*
X0011990D01*
X0011548D02*
X0011399D01*
X0011005Y0005290D02*
X0010987D01*
X0010970Y0005150D02*
Y0004590D01*
X0010880Y0005037D02*
Y0004120D01*
X0010790Y0004997D02*
Y0004120D01*
X0012360Y0004300D02*
X0012270D01*
X0012409Y0004930D02*
X0010600D01*
X0012440Y0004990D02*
X0012390D01*
X0012010Y0004590D02*
X0011450D01*
X0011005Y0005020D02*
X0010851D01*
X0012010Y0004590D02*
Y0004560D01*
X0012360Y0004390D02*
X0012254D01*
X0011450Y0004590D02*
Y0004120D01*
X0012140Y0004997D02*
Y0004525D01*
X0011330Y0004997D02*
Y0004590D01*
X0011351Y0004997D02*
X0011202D01*
X0011793D02*
X0011745D01*
X0010600Y0004810D02*
X0010520D01*
X0011450Y0004590D02*
X0010890D01*
Y0004120D01*
X0011960Y0004997D02*
Y0004590D01*
X0011990Y0004997D02*
X0011942D01*
X0011870D02*
Y0004590D01*
X0011240Y0004997D02*
Y0004590D01*
X0011745Y0004997D02*
X0011596D01*
X0012440Y0004990D02*
Y0004954D01*
X0010600Y0004977D02*
Y0004810D01*
X0010890Y0004390D02*
X0010520D01*
X0011060Y0004997D02*
Y0004590D01*
X0011510Y0004997D02*
Y0004590D01*
X0011420Y0004997D02*
Y0004590D01*
X0011399Y0004997D02*
X0011351D01*
X0010890Y0004280D02*
X0011170D01*
X0011450Y0004590D02*
Y0004120D01*
X0012320Y0004997D02*
Y0004120D01*
X0011600Y0004997D02*
Y0004590D01*
X0011005Y0005311D02*
X0010986Y0005292D01*
X0011170Y0004590D02*
Y0004280D01*
X0010890Y0004480D02*
X0010520D01*
X0010633Y0005009D02*
X0010617Y0004993D01*
X0011005Y0005110D02*
X0010949D01*
X0011178Y0004997D02*
Y0005275D01*
X0012360Y0004210D02*
X0012254D01*
X0012360Y0004810D02*
Y0004150D01*
X0011780Y0004997D02*
Y0004590D01*
X0010890Y0004120D02*
X0010520D01*
X0012360Y0004660D02*
X0010520D01*
X0012163Y0004997D02*
Y0005275D01*
X0010890Y0004210D02*
X0010520D01*
X0011966Y0004997D02*
Y0005304D01*
X0011572Y0004997D02*
Y0005304D01*
X0011375Y0004997D02*
Y0005304D01*
X0010890Y0004300D02*
X0010520D01*
X0012363Y0004120D02*
X0012197D01*
X0012050Y0004997D02*
Y0004557D01*
X0012230Y0004997D02*
Y0004438D01*
X0012360Y0004570D02*
X0012010D01*
X0012360Y0004480D02*
X0012197D01*
G01X0013768Y0006978D02*
G03X0013750Y0006975I0000032J0000258D01*
G01X0014740Y0006170D02*
G03X0015000Y0006430I0000000J0000260D01*
G01X0014535Y0006270D02*
G03X0014740Y0006170I0000205J0000160D01*
G01X0015000Y0006430D02*
G03X0014993Y0006490I0000260J0000000D01*
G01X0021290Y0005810D02*
G03X0021610Y0005490I0000320J0000000D01*
G03X0021930Y0005810I0000000J0000320D01*
G03X0021610Y0006130I0000320J0000000D01*
G03X0021290Y0005810I0000000J0000320D01*
G01X0013860Y0006467D02*
G03X0013921Y0006490I0000060J0000253D01*
G01X0014405Y0006324D02*
G03X0014530Y0006269I0000125J0000116D01*
G01X0021300Y0004690D02*
G03X0021620Y0004370I0000320J0000000D01*
G03X0021940Y0004690I0000000J0000320D01*
G03X0021620Y0005010I0000320J0000000D01*
G03X0021300Y0004690I0000000J0000320D01*
G01X0013950Y0005039D02*
G03X0013979Y0005140I0000230J0000121D01*
G01X0009480Y0007110D02*
G03X0009481Y0007090I0000260J0000000D01*
G01X0010000Y0007110D02*
G03X0009740Y0007370I0000260J0000000D01*
G03X0009480Y0007110I0000000J0000260D01*
G01X0011070Y0007270D02*
G03X0011270Y0007017I0000260J0000000D01*
G01X0007570Y0009000D02*
G03X0008000Y0008570I0000430J0000000D01*
G03X0008430Y0009000I0000000J0000430D01*
G03X0008000Y0009430I0000430J0000000D01*
G03X0007570Y0009000I0000000J0000430D01*
G01X0007000Y0008570D02*
G03X0007430Y0009000I0000000J0000430D01*
G03X0007000Y0009430I0000430J0000000D01*
G01X0006590Y0008870D02*
G03X0007000Y0008570I0000410J0000130D01*
Y0009430D02*
G03X0006590Y0009129I0000000J0000430D01*
G01X0009999Y0007090D02*
G03X0010000Y0007110I0000259J0000020D01*
G01X0012000Y0009430D02*
G03X0011640Y0009235I0000000J0000430D01*
Y0008765D02*
G03X0012000Y0008570I0000360J0000235D01*
G03X0012420Y0008908I0000000J0000430D01*
Y0009092D02*
G03X0012000Y0009430I0000420J0000092D01*
G01X0015310Y0006840D02*
G03X0015050Y0007090I0000260J0000010D01*
G01X0016830Y0009395D02*
G03X0016570Y0009000I0000170J0000395D01*
G01X0013000Y0008570D02*
G03X0013430Y0009000I0000000J0000430D01*
G03X0013000Y0009430I0000430J0000000D01*
G01X0012590Y0008870D02*
G03X0013000Y0008570I0000410J0000130D01*
G01X0016570Y0009000D02*
G03X0016830Y0008605I0000430J0000000D01*
G01X0013000Y0009430D02*
G03X0012590Y0009129I0000000J0000430D01*
G01X0015050Y0007090D02*
G03X0014950Y0007070I0000000J0000260D01*
G01X0010990Y0005250D02*
G03X0010986Y0005292I0000260J0000000D01*
G01X0012197Y0004120D02*
G03X0012270Y0004300I0000187J0000180D01*
G01X0010633Y0005009D02*
G03X0010730Y0004990I0000097J0000241D01*
G01X0012336Y0004999D02*
G03X0012390Y0004990I0000054J0000161D01*
G01X0010730D02*
G03X0010990Y0005250I0000000J0000260D01*
G01X0012360Y0004150D02*
G03X0012363Y0004120I0000170J0000000D01*
G01X0012270Y0004300D02*
G03X0012010Y0004560I0000260J0000000D01*
G01X0010600Y0004977D02*
G03X0010617Y0004993I0000110J0000143D01*
G01X0012440Y0004954D02*
G03X0012360Y0004810I0000090J0000144D01*
G54D25*
G01X0021550Y0005860D02*
X0021610Y0005800D01*
Y0005810D01*
X0011740Y0005690D02*
X0011769Y0005661D01*
Y0005304D01*
X0016239Y0002578D02*
X0016250Y0002568D01*
Y0002679D01*
X0012010Y0004300D02*
Y0004280D01*
X0011730D01*
X0010320Y0005120D02*
X0010490D01*
X0010620Y0005250D02*
X0010730D01*
X0011010Y0005570D02*
X0011021D01*
X0016250Y0001770D02*
Y0002458D01*
X0016229Y0002478D01*
X0016239D01*
Y0002578D01*
X0013720Y0005160D02*
X0013470D01*
X0006987Y0000571D02*
X0006988D01*
Y0001448D01*
X0007020Y0001480D01*
X0016633Y0002578D02*
Y0002037D01*
X0016630Y0002040D01*
X0012231Y0005767D02*
X0012623D01*
X0012690Y0005700D01*
X0013840Y0005690D02*
X0013890Y0005740D01*
Y0005770D01*
X0013700Y0005960D01*
X0009640Y0005900D02*
Y0005910D01*
X0009760Y0006030D01*
Y0006200D01*
X0010590Y0006800D02*
X0010520Y0006730D01*
X0010310D01*
X0013800Y0006720D02*
X0013530D01*
X0013520Y0006730D01*
X0013470D01*
X0011330Y0007270D02*
X0011590Y0007010D01*
X0011620D01*
X0010840Y0006410D02*
Y0006350D01*
X0010839Y0006349D01*
X0010940D01*
X0011010Y0006279D01*
Y0006170D01*
X0011021Y0006160D01*
X0015960Y0006980D02*
X0015920Y0007020D01*
Y0008920D01*
X0016000Y0009000D01*
X0012320Y0006160D02*
X0012670D01*
Y0006330D01*
X0012910D01*
Y0006730D01*
X0009740Y0007110D02*
X0009750Y0007100D01*
Y0006730D01*
X0012696Y0002578D02*
Y0002004D01*
X0012700Y0002000D01*
X0012290Y0005964D02*
X0012294Y0005960D01*
X0013140D01*
X0010640Y0006030D02*
X0010706Y0005964D01*
X0011050D01*
X0015990Y0009010D02*
X0016000Y0009000D01*
X0013090Y0001750D02*
Y0002568D01*
X0013080D01*
X0013090Y0002578D01*
X0016830Y0000571D02*
X0016820Y0000581D01*
Y0001060D01*
X0016870Y0001110D01*
X0015060Y0002050D02*
Y0002577D01*
X0015058Y0002578D01*
X0013140Y0005960D02*
Y0005690D01*
X0013180Y0005650D01*
X0009760Y0005120D02*
Y0004780D01*
X0009740Y0004760D01*
X0007184Y0002578D02*
Y0002114D01*
X0007180Y0002110D01*
X0014074Y0000571D02*
X0014060Y0000585D01*
Y0001300D01*
X0014080Y0001320D01*
X0010200Y0005900D02*
X0010210D01*
X0010340Y0005770D01*
X0011270D01*
X0011460Y0005960D01*
X0012010Y0004300D02*
Y0004280D01*
X0011730D01*
X0008956Y0000571D02*
X0008957D01*
Y0001103D01*
X0008940Y0001120D01*
X0012880Y0001050D02*
Y0000980D01*
X0012890Y0000970D01*
Y0000990D01*
X0012893Y0000993D01*
Y0000571D01*
X0012106D02*
X0012120Y0000586D01*
Y0001050D01*
X0012110Y0001060D01*
X0011121Y0002578D02*
Y0002048D01*
X0011130Y0002040D01*
X0009940Y0002578D02*
X0009930Y0002568D01*
Y0001920D01*
X0009940Y0001910D01*
X0009930Y0001900D01*
X0009940Y0001890D01*
Y0001760D01*
X0014468Y0000571D02*
X0014450Y0000588D01*
Y0001040D01*
X0014480Y0001070D01*
X0007370Y0001160D02*
Y0000880D01*
X0007380Y0000870D01*
X0007370D01*
Y0000581D01*
X0007381Y0000571D01*
X0009547Y0002578D02*
Y0002053D01*
X0009550Y0002050D01*
X0013680Y0000571D02*
X0013640Y0000611D01*
Y0001030D01*
X0013680Y0001070D01*
X0014861Y0000571D02*
Y0000810D01*
X0014890Y0000838D01*
Y0001330D01*
X0010728Y0002578D02*
Y0001762D01*
X0010730Y0001760D01*
X0011050Y0005767D02*
X0010330D01*
X0010220Y0005879D01*
X0010200Y0005900D01*
X0011909Y0002578D02*
Y0002011D01*
X0011920Y0002000D01*
X0008365Y0002578D02*
Y0001814D01*
X0008370Y0001810D01*
X0010334Y0002578D02*
Y0002056D01*
X0010340Y0002050D01*
X0016070Y0001080D02*
X0016043Y0001053D01*
Y0000571D01*
X0015846Y0002578D02*
Y0002044D01*
X0015860Y0002030D01*
X0012340Y0005570D02*
X0012320D01*
X0013300Y0001330D02*
Y0000587D01*
X0013287Y0000571D01*
X0008188D02*
X0008169Y0000590D01*
Y0001061D01*
X0008160Y0001070D01*
X0008759Y0002578D02*
Y0002081D01*
X0008760Y0002080D01*
X0012499Y0000571D02*
X0012510Y0000580D01*
Y0001310D01*
X0012500Y0001320D01*
X0009740Y0001060D02*
X0009743Y0001056D01*
Y0000571D01*
X0010531D02*
Y0001048D01*
X0010520Y0001060D01*
X0014740Y0006430D02*
Y0006690D01*
X0014630D01*
X0012310Y0001750D02*
X0012320Y0001760D01*
Y0002561D01*
X0012302Y0002578D01*
X0007790Y0001370D02*
X0007775D01*
Y0000571D01*
X0015680Y0001330D02*
X0015649Y0001299D01*
Y0000571D01*
X0014271Y0002578D02*
Y0001979D01*
X0014260Y0001990D01*
X0010137Y0000571D02*
Y0001047D01*
X0010140Y0001050D01*
Y0001340D01*
X0010150Y0001330D01*
X0012163Y0006456D02*
X0012167Y0006460D01*
Y0006997D01*
X0012180Y0007010D01*
X0007972Y0002578D02*
Y0002108D01*
X0007980Y0002100D01*
X0008562Y0000571D02*
X0008522Y0000611D01*
Y0001342D01*
X0008530Y0001350D01*
X0009350Y0001360D02*
Y0000571D01*
X0011320Y0001080D02*
X0011318Y0001078D01*
Y0000571D01*
X0013877Y0002578D02*
Y0001740D01*
X0013870D01*
X0021620Y0004690D02*
X0021610Y0004680D01*
X0012910D01*
X0016460Y0001340D02*
X0016436Y0001316D01*
Y0000571D01*
X0013484Y0002578D02*
Y0001986D01*
X0013480Y0001990D01*
X0014740Y0006430D02*
Y0006690D01*
X0014630D01*
X0015280Y0001080D02*
X0015255Y0001055D01*
Y0000571D01*
X0015452Y0002578D02*
X0015450Y0002576D01*
Y0001730D01*
X0010900Y0001330D02*
Y0000571D01*
X0010924D01*
X0007578Y0002578D02*
Y0001822D01*
X0007590Y0001810D01*
X0009150Y0001790D02*
X0009160Y0001800D01*
Y0002571D01*
X0009153Y0002578D01*
X0011720Y0001310D02*
X0011712Y0001302D01*
Y0000571D01*
X0014665Y0002578D02*
X0014680D01*
Y0001760D01*
X0011520Y0001740D02*
X0011510Y0001750D01*
Y0002518D01*
X0011515Y0002524D01*
Y0002578D01*
G54D26*
G01X0014110Y0006290D02*
X0014130Y0006310D01*
X0014490Y0005950D01*
X0015110D01*
X0015140Y0005980D01*
X0017350Y0006310D02*
X0017800Y0005860D01*
X0021550D01*
X0010490Y0005120D02*
X0010620Y0005250D01*
X0010730D02*
X0010770D01*
Y0005330D01*
X0011010Y0005570D01*
X0013000Y0009000D02*
X0013010Y0009010D01*
X0015990D01*
X0012180Y0007010D02*
Y0007330D01*
X0012000Y0007510D01*
Y0009000D01*
X0007000D02*
Y0008430D01*
X0007650Y0007780D01*
X0010370D01*
X0011178Y0006972D01*
G54D10*
X0010320Y0005120D03*
X0009760D03*
X0009750Y0006730D03*
X0010310D03*
X0010200Y0005900D03*
X0009640D03*
X0011730Y0004280D03*
X0011170D03*
X0012910Y0005160D03*
X0013470D03*
X0012180Y0007010D03*
X0011620D03*
X0013140Y0005960D03*
X0013700D03*
X0012910Y0006730D03*
X0013470D03*
G54D11*
X0017421Y0001594D03*
X0006397D03*
X0017420D03*
G54D12*
X0005964D03*
X0017853D03*
G54D13*
X0006987Y0000571D03*
X0007381D03*
X0007775D03*
X0008188D03*
X0008562D03*
X0008956D03*
X0009350D03*
X0009743D03*
X0010137D03*
X0010531D03*
X0010924D03*
X0011318D03*
X0011712D03*
X0012106D03*
X0012499D03*
X0012893D03*
X0013287D03*
X0013680D03*
X0014074D03*
X0014468D03*
X0014861D03*
X0015255D03*
X0015649D03*
X0016043D03*
X0016436D03*
X0016830D03*
X0007184Y0002578D03*
X0007578D03*
X0007972D03*
X0008365D03*
X0008759D03*
X0009153D03*
X0009547D03*
X0009940D03*
X0010334D03*
X0010728D03*
X0011121D03*
X0011515D03*
X0011909D03*
X0012302D03*
X0012696D03*
X0013090D03*
X0013484D03*
X0013877D03*
X0014271D03*
X0014665D03*
X0015058D03*
X0015452D03*
X0015846D03*
X0016239D03*
X0016633D03*
G54D14*
X0007000Y0009000D03*
X0008000D03*
X0012000D03*
X0013000D03*
X0017000D03*
X0018000D03*
G54D15*
X0006000D03*
X0011000D03*
X0016000D03*
G54D16*
X0021620Y0004690D03*
X0021610Y0005810D03*
G54D17*
X0001228Y0010941D03*
X0021248Y0000901D03*
G54D18*
X0012163Y0006456D03*
X0011178D03*
Y0005275D03*
X0012163D03*
G54D19*
X0011966Y0006426D03*
X0011769D03*
X0011572D03*
X0011375D03*
Y0005304D03*
X0011572D03*
X0011769D03*
X0011966D03*
G54D20*
X0012320Y0005570D03*
Y0006160D03*
X0011021D03*
Y0005570D03*
G54D21*
X0012290Y0005964D03*
X0011050D03*
Y0005767D03*
G54D22*
X0012231D03*
G54D23*
X0015860Y0002030D03*
X0015050Y0006830D03*
X0015460Y0007090D03*
X0016410D03*
X0010590Y0006800D03*
X0015960Y0006980D03*
X0014740Y0006430D03*
X0015330Y0003380D03*
X0015890Y0003330D03*
X0016620Y0003270D03*
X0017180Y0003290D03*
X0007020Y0001480D03*
X0007370Y0001160D03*
X0007790Y0001370D03*
X0008160Y0001070D03*
X0008530Y0001350D03*
X0008940Y0001120D03*
X0009350Y0001360D03*
X0009740Y0001060D03*
X0010520D03*
X0011720Y0001310D03*
X0015280Y0001080D03*
X0007980Y0002100D03*
X0007180Y0002110D03*
X0007590Y0001810D03*
X0016460Y0001340D03*
X0016870Y0001110D03*
X0014110Y0006290D03*
X0011460Y0005960D03*
X0010790Y0004760D03*
Y0004300D03*
X0011540Y0004760D03*
X0009760Y0006200D03*
X0010730Y0005250D03*
X0012310Y0001750D03*
X0013180Y0005650D03*
X0015450Y0001730D03*
X0014680Y0001760D03*
X0014260Y0001990D03*
X0013870Y0001740D03*
X0013480Y0001990D03*
X0013090Y0001750D03*
X0012700Y0002000D03*
X0011130Y0002040D03*
X0010730Y0001760D03*
X0010340Y0002050D03*
X0009550D03*
X0009940Y0001760D03*
X0009150Y0001790D03*
X0008760Y0002080D03*
X0008370Y0001810D03*
X0010900Y0001330D03*
X0011320Y0001080D03*
X0012110Y0001060D03*
X0012500Y0001320D03*
X0012880Y0001050D03*
X0013300Y0001330D03*
X0013680Y0001070D03*
X0014080Y0001320D03*
X0014480Y0001070D03*
X0014890Y0001330D03*
X0015680D03*
X0016070Y0001080D03*
X0011920Y0002000D03*
X0011520Y0001740D03*
X0016630Y0002040D03*
X0016250Y0001770D03*
X0011740Y0005690D03*
X0009740Y0004760D03*
X0010640Y0006030D03*
X0009740Y0007110D03*
X0012250Y0004760D03*
X0012690Y0005700D03*
X0013720Y0005160D03*
X0013840Y0005690D03*
X0013800Y0006720D03*
X0010840Y0006410D03*
X0011330Y0007270D03*
G54D27*
X0015060Y0002050D03*
X0012010Y0004300D03*
X0010150Y0001330D03*
M02*
