%
T1C0.0100F200S100
X007020Y001480
X007180Y002110
X007370Y001160
X007590Y001810
X007790Y001370
X007980Y002100
X008160Y001070
X008370Y001810
X008530Y001350
X008760Y002080
X008940Y001120
X009150Y001790
X009350Y001360
X009550Y002050
X009740Y001060
X009740Y004760
X009760Y006200
X009740Y007110
X009940Y001760
X010150Y001330
X010340Y002050
X010520Y001060
X010590Y006800
X010640Y006030
X010730Y001760
X010790Y004300
X010790Y004760
X010730Y005250
X010840Y006410
X010900Y001330
X011130Y002040
X011320Y001080
X011330Y007270
X011460Y005960
X011520Y001740
X011540Y004760
X011720Y001310
X011740Y005690
X011920Y002000
X012010Y004300
X012110Y001060
X012250Y004760
X012310Y001750
X012500Y001320
X012690Y005700
X012700Y002000
X012880Y001050
X013090Y001750
X013180Y005650
X013300Y001330
X013480Y001990
X013680Y001070
X013720Y005160
X013800Y006720
X013840Y005690
X013870Y001740
X014080Y001320
X014110Y006290
X014260Y001990
X014480Y001070
X014680Y001760
X014740Y006430
X014890Y001330
X015050Y006830
X015060Y002050
X015280Y001080
X015330Y003380
X015450Y001730
X015460Y007090
X015680Y001330
X015860Y002030
X015890Y003330
X015960Y006980
X016070Y001080
X016250Y001770
X016410Y007090
X016460Y001340
X016620Y003270
X016630Y002040
X016870Y001110
X017180Y003290
T2C0.0420F200S100
X006000Y009000
X007000Y009000
X008000Y009000
X011000Y009000
X012000Y009000
X013000Y009000
X016000Y009000
X017000Y009000
X018000Y009000
T3C0.0472F200S100
X006397Y001594
X006397Y001594
X017420Y001594
X017421Y001594
T4C0.1250F200S100
X001228Y010941
X021248Y000901
M30
