M48
INCH,TZ
FMAT,2
ICI,OFF
%
T1C.01
X000702Y000148
X000718Y000211
X000737Y000116
X000759Y000181
X000779Y000137
X000798Y000210
X000816Y000107
X000837Y000181
X000853Y000135
X000876Y000208
X000894Y000112
X000915Y000179
X000935Y000136
X000955Y000205
X000974Y000106
X000974Y000476
X000976Y000620
X000974Y000711
X000994Y000176
X001015Y000133
X001034Y000205
X001052Y000106
X001059Y000680
X001061Y000603
X001069Y000428
X001073Y000176
X001073Y000525
X001084Y000641
X001090Y000133
X001097Y000484
X001113Y000204
X001132Y000108
X001133Y000727
X001142Y000484
X001146Y000596
X001152Y000174
X001172Y000131
X001177Y000578
X001187Y000484
X001192Y000200
X001211Y000106
X001213Y000387
X001225Y000428
X001225Y000484
X001231Y000175
X001250Y000132
X001270Y000200
X001272Y000570
X001288Y000105
X001309Y000175
X001318Y000556
X001330Y000133
X001348Y000199
X001368Y000107
X001372Y000516
X001380Y000672
X001387Y000174
X001403Y000580
X001408Y000132
X001411Y000629
X001426Y000199
X001448Y000107
X001468Y000176
X001474Y000643
X001489Y000133
X001506Y000205
X001528Y000108
X001533Y000338
X001545Y000173
X001568Y000133
X001586Y000203
X001589Y000333
X001600Y000702
X001607Y000108
X001625Y000177
X001646Y000134
X001662Y000331
X001663Y000204
X001687Y000111
X001729Y000330
T2C.042
X000600Y000900
X000640Y000471
X000640Y000571
X000700Y000900
X000800Y000900
X001100Y000900
X001200Y000900
X001300Y000900
X001600Y000900
X001700Y000900
X001800Y000900
X002123Y000425
X002123Y000525
X002123Y000625
X002123Y000725
X002123Y000825
X002123Y000925
X002123Y001025
X002123Y001125
T3C.0472
X000640Y000159
X001742Y000159
X001742Y000159
T4C.125
X000123Y001094
X002125Y000090
M30
